<svg width="24" height="24" viewBox="0 0 24 24" fill="currentColor" xmlns="http://www.w3.org/2000/svg">
<path fill-rule="evenodd" clip-rule="evenodd" d="M10.7985 3H13.2C13.2796 3 13.3559 3.03161 13.4121 3.08787C13.4684 3.14413 13.5 3.22044 13.5 3.3C13.5 6.012 16.437 7.7085 18.786 6.351C18.8546 6.31223 18.9356 6.30199 19.0117 6.32248C19.0877 6.34296 19.1527 6.39254 19.1925 6.4605L20.3955 8.5425C20.4347 8.6112 20.4453 8.69263 20.4247 8.76904C20.4042 8.84545 20.3544 8.91067 20.286 8.9505C17.937 10.3065 17.937 13.6965 20.286 15.054C20.354 15.0938 20.4035 15.1588 20.424 15.2348C20.4445 15.3109 20.4343 15.3919 20.3955 15.4605L19.1925 17.5425C19.1527 17.6105 19.0877 17.66 19.0117 17.6805C18.9356 17.701 18.8546 17.6908 18.786 17.652C16.437 16.2945 13.5 17.9895 13.5 20.7C13.5 20.7793 13.4686 20.8554 13.4127 20.9116C13.3567 20.9678 13.2808 20.9996 13.2015 21H10.8C10.7204 21 10.6441 20.9684 10.5879 20.9121C10.5316 20.8559 10.5 20.7796 10.5 20.7C10.5 17.988 7.56301 16.293 5.21401 17.649C5.1453 17.6882 5.06388 17.6987 4.98747 17.6782C4.91105 17.6577 4.84583 17.6079 4.80601 17.5395L3.60601 15.4575C3.56711 15.3891 3.55664 15.3082 3.57684 15.2322C3.59704 15.1561 3.6463 15.0911 3.71401 15.051C6.06301 13.6935 6.06301 10.3035 3.71401 8.946C3.64645 8.9062 3.59716 8.84152 3.57669 8.76582C3.55622 8.69013 3.56621 8.60943 3.60451 8.541L4.80601 6.4575C4.84608 6.38939 4.91141 6.33984 4.9878 6.31962C5.0642 6.2994 5.14548 6.31014 5.21401 6.3495C7.56301 7.707 10.5 6.0105 10.5 3.2985C10.5 3.1335 10.6335 3 10.7985 3ZM8.25001 3.3C8.25001 1.89 9.39001 0.75 10.7985 0.75H13.2C14.61 0.75 15.75 1.89 15.75 3.3C15.7505 3.52345 15.8096 3.74285 15.9216 3.93623C16.0335 4.12961 16.1943 4.29018 16.3879 4.40184C16.5814 4.5135 16.8009 4.57234 17.0243 4.57245C17.2478 4.57257 17.4673 4.51396 17.661 4.4025C18.2464 4.06539 18.9415 3.97429 19.594 4.14921C20.2464 4.32413 20.8028 4.75078 21.141 5.3355L22.344 7.4175C23.0475 8.637 22.629 10.194 21.411 10.8975C21.2173 11.0094 21.0564 11.1704 20.9446 11.3642C20.8327 11.5579 20.7738 11.7778 20.7738 12.0015C20.7738 12.2252 20.8327 12.4451 20.9446 12.6388C21.0564 12.8326 21.2173 12.9936 21.411 13.1055C21.9957 13.4437 22.4224 14.0001 22.5973 14.6525C22.7722 15.305 22.6811 16.0002 22.344 16.5855L21.141 18.6675C20.8028 19.2522 20.2464 19.6789 19.594 19.8538C18.9415 20.0287 18.2464 19.9376 17.661 19.6005C17.4673 19.489 17.2478 19.4304 17.0243 19.4305C16.8009 19.4307 16.5814 19.4895 16.3879 19.6012C16.1943 19.7128 16.0335 19.8734 15.9216 20.0668C15.8096 20.2601 15.7505 20.4796 15.75 20.703C15.75 22.1115 14.61 23.253 13.2015 23.253H10.8C10.124 23.2526 9.47575 22.9838 8.99785 22.5056C8.51996 22.0274 8.25151 21.379 8.25151 20.703C8.25106 20.4796 8.1919 20.2601 8.07995 20.0668C7.96801 19.8734 7.8072 19.7128 7.61366 19.6012C7.42011 19.4895 7.20062 19.4307 6.97717 19.4305C6.75372 19.4304 6.53417 19.489 6.34051 19.6005C5.75516 19.9376 5.05997 20.0287 4.40753 19.8538C3.75509 19.6789 3.19871 19.2522 2.86051 18.6675L1.65751 16.5855C1.32039 16.0002 1.2293 15.305 1.40422 14.6525C1.57914 14.0001 2.00579 13.4437 2.59051 13.1055C2.7839 12.9935 2.94444 12.8326 3.05604 12.6389C3.16765 12.4453 3.2264 12.2257 3.2264 12.0023C3.2264 11.7788 3.16765 11.5592 3.05604 11.3656C2.94444 11.1719 2.7839 11.011 2.59051 10.899C2.00579 10.5608 1.57914 10.0044 1.40422 9.35198C1.2293 8.69954 1.32039 8.00435 1.65751 7.419L2.85901 5.3355C3.19721 4.75078 3.75359 4.32413 4.40603 4.14921C5.05847 3.97429 5.75366 4.06539 6.33901 4.4025C6.53267 4.51396 6.75222 4.57257 6.97567 4.57245C7.19912 4.57234 7.41861 4.5135 7.61216 4.40184C7.8057 4.29018 7.96651 4.12961 8.07845 3.93623C8.1904 3.74285 8.24956 3.52345 8.25001 3.3ZM14.25 12C14.25 12.5967 14.013 13.169 13.591 13.591C13.169 14.0129 12.5967 14.25 12 14.25C11.4033 14.25 10.831 14.0129 10.409 13.591C9.98706 13.169 9.75001 12.5967 9.75001 12C9.75001 11.4033 9.98706 10.831 10.409 10.409C10.831 9.98705 11.4033 9.75 12 9.75C12.5967 9.75 13.169 9.98705 13.591 10.409C14.013 10.831 14.25 11.4033 14.25 12ZM16.5 12C16.5 13.1935 16.0259 14.3381 15.182 15.182C14.3381 16.0259 13.1935 16.5 12 16.5C10.8065 16.5 9.66194 16.0259 8.81803 15.182C7.97411 14.3381 7.50001 13.1935 7.50001 12C7.50001 10.8065 7.97411 9.66193 8.81803 8.81802C9.66194 7.97411 10.8065 7.5 12 7.5C13.1935 7.5 14.3381 7.97411 15.182 8.81802C16.0259 9.66193 16.5 10.8065 16.5 12Z" fill="currentColor"/>
</svg>
