<svg width="24" height="24" viewBox="0 0 24 24" fill="currentColor" xmlns="http://www.w3.org/2000/svg">
<path d="M18 15C16.8 15 15.9 15.45 15 16.2L10.2 13.5C10.35 13.05 10.5 12.45 10.5 12C10.5 11.55 10.35 10.95 10.2 10.5L15 7.8C15.9 8.55 16.8 9 18 9C20.55 9 22.5 7.05 22.5 4.5C22.5 1.95 20.55 0 18 0C15.45 0 13.5 1.95 13.5 4.5V5.25L8.25 8.1C7.65 7.8 6.9 7.5 6 7.5C3.6 7.5 1.5 9.45 1.5 12C1.5 14.4 3.6 16.5 6 16.5C6.9 16.5 7.65 16.2 8.25 15.9L13.5 18.75V19.5C13.5 22.05 15.45 24 18 24C20.55 24 22.5 22.05 22.5 19.5C22.5 16.95 20.55 15 18 15Z" fill="currentColor"/>
</svg>
