<svg width="24" height="24" viewBox="0 0 24 24" fill="currentColor" xmlns="http://www.w3.org/2000/svg">
<path d="M12 22C11.45 22 10.9793 21.8043 10.588 21.413C10.1967 21.0217 10.0007 20.5507 10 20H14C14 20.55 13.8043 21.021 13.413 21.413C13.0217 21.805 12.5507 22.0007 12 22ZM9 19C8.71667 19 8.47933 18.904 8.288 18.712C8.09667 18.52 8.00067 18.2827 8 18C7.99933 17.7173 8.09533 17.48 8.288 17.288C8.48067 17.096 8.718 17 9 17H15C15.2833 17 15.521 17.096 15.713 17.288C15.905 17.48 16.0007 17.7173 16 18C15.9993 18.2827 15.9033 18.5203 15.712 18.713C15.5207 18.9057 15.2833 19.0013 15 19H9ZM8.25 16C7.1 15.3167 6.18733 14.4 5.512 13.25C4.83667 12.1 4.49933 10.85 4.5 9.5C4.5 7.41667 5.22933 5.646 6.688 4.188C8.14667 2.73 9.91733 2.00067 12 2C14.0827 1.99933 15.8537 2.72867 17.313 4.188C18.7723 5.64733 19.5013 7.418 19.5 9.5C19.5 10.85 19.1627 12.1 18.488 13.25C17.8133 14.4 16.9007 15.3167 15.75 16H8.25ZM8.85 14H15.15C15.9 13.4667 16.4793 12.8083 16.888 12.025C17.2967 11.2417 17.5007 10.4 17.5 9.5C17.5 7.96667 16.9667 6.66667 15.9 5.6C14.8333 4.53333 13.5333 4 12 4C10.4667 4 9.16667 4.53333 8.1 5.6C7.03333 6.66667 6.5 7.96667 6.5 9.5C6.5 10.4 6.70433 11.2417 7.113 12.025C7.52167 12.8083 8.10067 13.4667 8.85 14Z" fill="currentColor"/>
</svg>
