<svg width="24" height="24" viewBox="0 0 24 24" fill="currentColor" xmlns="http://www.w3.org/2000/svg">
<path fill-rule="evenodd" clip-rule="evenodd" d="M3 9C3.79565 9 4.55871 9.31607 5.12132 9.87868C5.68393 10.4413 6 11.2044 6 12C6 12.7956 5.68393 13.5587 5.12132 14.1213C4.55871 14.6839 3.79565 15 3 15C2.20435 15 1.44129 14.6839 0.87868 14.1213C0.316071 13.5587 0 12.7956 0 12C0 11.2044 0.316071 10.4413 0.87868 9.87868C1.44129 9.31607 2.20435 9 3 9ZM21 9C21.7957 9 22.5587 9.31607 23.1213 9.87868C23.6839 10.4413 24 11.2044 24 12C24 12.7956 23.6839 13.5587 23.1213 14.1213C22.5587 14.6839 21.7957 15 21 15C20.2044 15 19.4413 14.6839 18.8787 14.1213C18.3161 13.5587 18 12.7956 18 12C18 11.2044 18.3161 10.4413 18.8787 9.87868C19.4413 9.31607 20.2044 9 21 9ZM12.2712 9C13.0668 9 13.8299 9.31607 14.3925 9.87868C14.9551 10.4413 15.2712 11.2044 15.2712 12C15.2712 12.7956 14.9551 13.5587 14.3925 14.1213C13.8299 14.6839 13.0668 15 12.2712 15C11.4756 15 10.7125 14.6839 10.1499 14.1213C9.58727 13.5587 9.2712 12.7956 9.2712 12C9.2712 11.2044 9.58727 10.4413 10.1499 9.87868C10.7125 9.31607 11.4756 9 12.2712 9Z" fill="currentColor"/>
</svg>
