<svg fill="none" xmlns="http://www.w3.org/2000/svg" viewBox="-51 -44 140 130">
<g clip-path="url(#clip0_455_503)">
<path d="M40 0H0V40H40V0Z" fill="white"/>
<path d="M-6 10C4 7.33333 14 8.33333 24 13M34 38C24 31.3333 25.6667 26.3333 39 23M39 3C32.3333 9.66667 30.6667 19.6667 34 33M9 -7C12.3333 3 10.6667 13 4 23" stroke="#E6E6E6" stroke-width="2" stroke-linecap="round"/>
<path d="M-46 10C-36 7.33333 -26 8.33333 -16 13M-6 38C-16 31.3333 -14.3333 26.3333 -1 23M-1 3C-7.66667 9.66667 -9.33333 19.6667 -6 33M-31 -7C-27.6667 3 -29.3333 13 -36 23" stroke="#E6E6E6" stroke-width="2" stroke-linecap="round"/>
<path d="M4 31C14 27.6667 24 27.6667 34 31M32 1C34.6667 6.33333 38.6667 10.3333 44 13M-4 23C8 20.3333 16.6667 23.6667 22 33M26 41C32.6667 37 38.6667 36.3333 44 39" stroke="#E6E6E6" stroke-width="2" stroke-linecap="round"/>
<path d="M19 39L14 47H24L19 39Z" stroke="#E6E6E6" stroke-width="2" stroke-linejoin="round"/>
<path d="M22 27C24.2091 27 26 25.2091 26 23C26 20.7909 24.2091 19 22 19C19.7909 19 18 20.7909 18 23C18 25.2091 19.7909 27 22 27Z" stroke="#E6E6E6" stroke-width="2"/>
<path d="M2 18H-2C-3.10457 18 -4 18.8954 -4 20V24C-4 25.1046 -3.10457 26 -2 26H2C3.10457 26 4 25.1046 4 24V20C4 18.8954 3.10457 18 2 18Z" stroke="#E6E6E6" stroke-width="2"/>
<path d="M34 10C44 7.33333 54 8.33333 64 13M74 38C64 31.3333 65.6667 26.3333 79 23M79 3C72.3333 9.66667 70.6667 19.6667 74 33M49 -7C52.3333 3 50.6667 13 44 23" stroke="#E6E6E6" stroke-width="2" stroke-linecap="round"/>
<path d="M44 31C54 27.6667 64 27.6667 74 31M72 1C74.6667 6.33333 78.6667 10.3333 84 13M36 23C48 20.3333 56.6667 23.6667 62 33M66 41C72.6667 37 78.6667 36.3333 84 39" stroke="#E6E6E6" stroke-width="2" stroke-linecap="round"/>
<path d="M-36 31C-26 27.6667 -16 27.6667 -6 31M-8 1C-5.33333 6.33333 -1.33333 10.3333 4 13M-44 23C-32 20.3333 -23.3333 23.6667 -18 33M-14 41C-7.33333 37 -1.33333 36.3333 4 39" stroke="#E6E6E6" stroke-width="2" stroke-linecap="round"/>
<path d="M42 18H38C36.8954 18 36 18.8954 36 20V24C36 25.1046 36.8954 26 38 26H42C43.1046 26 44 25.1046 44 24V20C44 18.8954 43.1046 18 42 18Z" stroke="#E6E6E6" stroke-width="2"/>
<path d="M19 -1L14 7H24L19 -1Z" stroke="#E6E6E6" stroke-width="2" stroke-linejoin="round"/>
<path d="M4 -9C14 -12.3333 24 -12.3333 34 -9M32 -39C34.6667 -33.6667 38.6667 -29.6667 44 -27M-4 -17C8 -19.6667 16.6667 -16.3333 22 -7M26 1C32.6667 -3 38.6667 -3.66667 44 -1" stroke="#E6E6E6" stroke-width="2" stroke-linecap="round"/>
<path d="M-6 50C4 47.3333 14 48.3333 24 53M34 78C24 71.3333 25.6667 66.3333 39 63M39 43C32.3333 49.6667 30.6667 59.6667 34 73M9 33C12.3333 43 10.6667 53 4 63" stroke="#E6E6E6" stroke-width="2" stroke-linecap="round"/>
<path d="M4 71C14 67.6667 24 67.6667 34 71M32 41C34.6667 46.3333 38.6667 50.3333 44 53M-4 63C8 60.3333 16.6667 63.6667 22 73M26 81C32.6667 77 38.6667 76.3333 44 79" stroke="#E6E6E6" stroke-width="2" stroke-linecap="round"/>
</g>
<defs>
<clipPath id="clip0_455_503">
<rect width="40" height="40" fill="white"/>
</clipPath>
</defs>
</svg>