<svg width="24" height="24" viewBox="0 0 24 24" fill="currentColor" xmlns="http://www.w3.org/2000/svg">
<path d="M12 21C10.7667 21 9.604 20.7627 8.512 20.288C7.42 19.8133 6.466 19.1673 5.65 18.35C4.834 17.5327 4.18833 16.5783 3.713 15.487C3.23767 14.3957 3 13.2333 3 12C3 10.7 3.25 9.48333 3.75 8.35C4.25 7.21667 4.95 6.24167 5.85 5.425C6.06667 5.24167 6.30833 5.154 6.575 5.162C6.84167 5.17 7.06667 5.266 7.25 5.45L12.7 10.9C12.8833 11.0833 12.975 11.3167 12.975 11.6C12.975 11.8833 12.8833 12.1167 12.7 12.3C12.5167 12.4833 12.2833 12.575 12 12.575C11.7167 12.575 11.4833 12.4833 11.3 12.3L6.6 7.6C6.1 8.2 5.70833 8.871 5.425 9.613C5.14167 10.355 5 11.1507 5 12C5 13.9333 5.68333 15.5833 7.05 16.95C8.41667 18.3167 10.0667 19 12 19C13.9333 19 15.5833 18.3167 16.95 16.95C18.3167 15.5833 19 13.9333 19 12C19 10.2167 18.429 8.67933 17.287 7.388C16.145 6.09667 14.716 5.334 13 5.1V6C13 6.28333 12.904 6.521 12.712 6.713C12.52 6.905 12.2827 7.00067 12 7C11.7173 6.99933 11.48 6.90333 11.288 6.712C11.096 6.52067 11 6.28333 11 6V4C11 3.71667 11.096 3.47933 11.288 3.288C11.48 3.09667 11.7173 3.00067 12 3C13.2333 3 14.396 3.23767 15.488 3.713C16.58 4.18833 17.534 4.834 18.35 5.65C19.166 6.466 19.812 7.42033 20.288 8.513C20.764 9.60567 21.0013 10.768 21 12C20.9987 13.232 20.7613 14.3947 20.288 15.488C19.8147 16.5813 19.1687 17.5353 18.35 18.35C17.5313 19.1647 16.577 19.8107 15.487 20.288C14.397 20.7653 13.2347 21.0027 12 21ZM7 13C6.71667 13 6.47933 12.904 6.288 12.712C6.09667 12.52 6.00067 12.2827 6 12C5.99933 11.7173 6.09533 11.48 6.288 11.288C6.48067 11.096 6.718 11 7 11C7.282 11 7.51967 11.096 7.713 11.288C7.90633 11.48 8.002 11.7173 8 12C7.998 12.2827 7.902 12.5203 7.712 12.713C7.522 12.9057 7.28467 13.0013 7 13ZM12 18C11.7167 18 11.4793 17.904 11.288 17.712C11.0967 17.52 11.0007 17.2827 11 17C10.9993 16.7173 11.0953 16.48 11.288 16.288C11.4807 16.096 11.718 16 12 16C12.282 16 12.5197 16.096 12.713 16.288C12.9063 16.48 13.002 16.7173 13 17C12.998 17.2827 12.902 17.5203 12.712 17.713C12.522 17.9057 12.2847 18.0013 12 18ZM17 13C16.7167 13 16.4793 12.904 16.288 12.712C16.0967 12.52 16.0007 12.2827 16 12C15.9993 11.7173 16.0953 11.48 16.288 11.288C16.4807 11.096 16.718 11 17 11C17.282 11 17.5197 11.096 17.713 11.288C17.9063 11.48 18.002 11.7173 18 12C17.998 12.2827 17.902 12.5203 17.712 12.713C17.522 12.9057 17.2847 13.0013 17 13Z" fill="currentColor"/>
</svg>
