<svg width="24" height="24" viewBox="0 0 24 24" fill="currentColor" xmlns="http://www.w3.org/2000/svg">
<path d="M22 2H8.00003V7.15C6.67266 7.42131 5.44358 8.0471 4.44334 8.96089C3.44309 9.87469 2.70905 11.0424 2.31919 12.3399C1.92933 13.6374 1.8982 15.0162 2.22913 16.33C2.56005 17.6438 3.24066 18.8434 4.19865 19.8014C5.15665 20.7594 6.35625 21.44 7.67002 21.7709C8.98379 22.1018 10.3627 22.0707 11.6602 21.6808C12.9577 21.291 14.1253 20.5569 15.0391 19.5567C15.9529 18.5565 16.5787 17.3274 16.85 16H22V2ZM16.984 14C16.8631 12.1875 16.0884 10.4805 14.804 9.19606C13.5195 7.91159 11.8125 7.13695 10 7.016V4H20V14H16.984ZM9.50003 9C10.9587 9 12.3577 9.57946 13.3891 10.6109C14.4206 11.6424 15 13.0413 15 14.5C15 15.9587 14.4206 17.3576 13.3891 18.3891C12.3577 19.4205 10.9587 20 9.50003 20C8.04134 20 6.64239 19.4205 5.61094 18.3891C4.57949 17.3576 4.00003 15.9587 4.00003 14.5C4.00003 13.0413 4.57949 11.6424 5.61094 10.6109C6.64239 9.57946 8.04134 9 9.50003 9Z" fill="currentColor"/>
</svg>
