<svg width="24" height="24" viewBox="0 0 24 24" fill="currentColor" xmlns="http://www.w3.org/2000/svg">
<path d="M4 20C3.45 20 2.97933 19.8043 2.588 19.413C2.19667 19.0217 2.00067 18.5507 2 18V6C2 5.45 2.196 4.97933 2.588 4.588C2.98 4.19667 3.45067 4.00067 4 4H20C20.55 4 21.021 4.196 21.413 4.588C21.805 4.98 22.0007 5.45067 22 6V18C22 18.55 21.8043 19.021 21.413 19.413C21.0217 19.805 20.5507 20.0007 20 20H4ZM4 18H20V8H4V18ZM8.675 13L6.775 11.1C6.575 10.9 6.479 10.6667 6.487 10.4C6.495 10.1333 6.59933 9.9 6.8 9.7C7 9.51667 7.23333 9.421 7.5 9.413C7.76667 9.405 8 9.50067 8.2 9.7L10.8 12.3C11 12.5 11.1 12.7333 11.1 13C11.1 13.2667 11 13.5 10.8 13.7L8.2 16.3C8.01667 16.4833 7.78767 16.5793 7.513 16.588C7.23833 16.5967 7.00067 16.5007 6.8 16.3C6.61667 16.1167 6.525 15.8833 6.525 15.6C6.525 15.3167 6.61667 15.0833 6.8 14.9L8.675 13ZM13 17C12.7167 17 12.4793 16.904 12.288 16.712C12.0967 16.52 12.0007 16.2827 12 16C11.9993 15.7173 12.0953 15.48 12.288 15.288C12.4807 15.096 12.718 15 13 15H17C17.2833 15 17.521 15.096 17.713 15.288C17.905 15.48 18.0007 15.7173 18 16C17.9993 16.2827 17.9033 16.5203 17.712 16.713C17.5207 16.9057 17.2833 17.0013 17 17H13Z" fill="currentColor"/>
</svg>
